<svg aria-hidden="true" style="position: absolute; width: 0; height: 0; overflow: hidden;" version="1.1" xmlns="http://www.w3.org/2000/svg" xmlns:xlink="http://www.w3.org/1999/xlink">
<defs>
<symbol id="icon-eye" viewBox="0 0 32 32">
<path d="M16 6c-6.979 0-13.028 4.064-16 10 2.972 5.936 9.021 10 16 10s13.027-4.064 16-10c-2.972-5.936-9.021-10-16-10zM23.889 11.303c1.88 1.199 3.473 2.805 4.67 4.697-1.197 1.891-2.79 3.498-4.67 4.697-2.362 1.507-5.090 2.303-7.889 2.303s-5.527-0.796-7.889-2.303c-1.88-1.199-3.473-2.805-4.67-4.697 1.197-1.891 2.79-3.498 4.67-4.697 0.122-0.078 0.246-0.154 0.371-0.228-0.311 0.854-0.482 1.776-0.482 2.737 0 4.418 3.582 8 8 8s8-3.582 8-8c0-0.962-0.17-1.883-0.482-2.737 0.124 0.074 0.248 0.15 0.371 0.228v0zM16 13c0 1.657-1.343 3-3 3s-3-1.343-3-3 1.343-3 3-3 3 1.343 3 3z"></path>
</symbol>
<symbol id="icon-eye-blocked" viewBox="0 0 32 32">
<path d="M29.561 0.439c-0.586-0.586-1.535-0.586-2.121 0l-6.318 6.318c-1.623-0.492-3.342-0.757-5.122-0.757-6.979 0-13.028 4.064-16 10 1.285 2.566 3.145 4.782 5.407 6.472l-4.968 4.968c-0.586 0.586-0.586 1.535 0 2.121 0.293 0.293 0.677 0.439 1.061 0.439s0.768-0.146 1.061-0.439l27-27c0.586-0.586 0.586-1.536 0-2.121zM13 10c1.32 0 2.44 0.853 2.841 2.037l-3.804 3.804c-1.184-0.401-2.037-1.521-2.037-2.841 0-1.657 1.343-3 3-3zM3.441 16c1.197-1.891 2.79-3.498 4.67-4.697 0.122-0.078 0.246-0.154 0.371-0.228-0.311 0.854-0.482 1.776-0.482 2.737 0 1.715 0.54 3.304 1.459 4.607l-1.904 1.904c-1.639-1.151-3.038-2.621-4.114-4.323z"></path>
<path d="M24 13.813c0-0.849-0.133-1.667-0.378-2.434l-10.056 10.056c0.768 0.245 1.586 0.378 2.435 0.378 4.418 0 8-3.582 8-8z"></path>
<path d="M25.938 9.062l-2.168 2.168c0.040 0.025 0.079 0.049 0.118 0.074 1.88 1.199 3.473 2.805 4.67 4.697-1.197 1.891-2.79 3.498-4.67 4.697-2.362 1.507-5.090 2.303-7.889 2.303-1.208 0-2.403-0.149-3.561-0.439l-2.403 2.403c1.866 0.671 3.873 1.036 5.964 1.036 6.978 0 13.027-4.064 16-10-1.407-2.81-3.504-5.2-6.062-6.938z"></path>
</symbol>
<symbol id="icon-camera" viewBox="0 0 32 32">
<path d="M9.5 19c0 3.59 2.91 6.5 6.5 6.5s6.5-2.91 6.5-6.5-2.91-6.5-6.5-6.5-6.5 2.91-6.5 6.5zM30 8h-7c-0.5-2-1-4-3-4h-8c-2 0-2.5 2-3 4h-7c-1.1 0-2 0.9-2 2v18c0 1.1 0.9 2 2 2h28c1.1 0 2-0.9 2-2v-18c0-1.1-0.9-2-2-2zM16 27.875c-4.902 0-8.875-3.973-8.875-8.875s3.973-8.875 8.875-8.875c4.902 0 8.875 3.973 8.875 8.875s-3.973 8.875-8.875 8.875zM30 14h-4v-2h4v2z"></path>
</symbol>
<symbol id="icon-arrow-right" viewBox="0 0 32 32">
<path d="M20 24c-0.4 0-0.667-0.133-0.933-0.4-0.533-0.533-0.533-1.333 0-1.867l6.667-6.667c0.533-0.533 1.333-0.533 1.867 0s0.533 1.333 0 1.867l-6.667 6.667c-0.267 0.267-0.533 0.4-0.933 0.4z"></path>
<path d="M26.667 17.333c-0.4 0-0.667-0.133-0.933-0.4l-6.667-6.667c-0.533-0.533-0.533-1.333 0-1.867s1.333-0.533 1.867 0l6.667 6.667c0.533 0.533 0.533 1.333 0 1.867-0.267 0.267-0.533 0.4-0.933 0.4z"></path>
<path d="M26.667 17.333h-21.333c-0.8 0-1.333-0.533-1.333-1.333s0.533-1.333 1.333-1.333h21.333c0.8 0 1.333 0.533 1.333 1.333s-0.533 1.333-1.333 1.333z"></path>
</symbol>
<symbol id="icon-send" viewBox="0 0 32 32">
<path d="M31.354 11.581c-0.753-2.637-2.096-4.926-4.070-6.899-1.52-1.52-3.27-2.683-5.223-3.476-1.959-0.796-3.965-1.206-6.043-1.206v1.956c3.65 0 7.254 1.41 9.921 4.088 1.717 1.724 2.892 3.74 3.546 6.026 0.655 2.291 0.751 4.594 0.244 6.917s-1.537 4.384-3.109 6.183l-2.725-2.672v6.655l6.795 0.105-2.725-2.725c1.817-2.061 3.022-4.42 3.616-7.057s0.522-5.274-0.227-7.895z"></path>
<path d="M2.499 19.948c-0.654-2.286-0.734-4.594-0.227-6.917s1.555-4.402 3.127-6.201l2.725 2.708v-6.69l-6.795-0.070 2.708 2.69c-1.817 2.061-3.022 4.419-3.616 7.057s-0.527 5.276 0.227 7.913c0.749 2.621 2.096 4.908 4.070 6.882 1.52 1.52 3.269 2.683 5.223 3.476 1.96 0.796 3.983 1.205 6.079 1.205v-1.921c-3.703 0-7.254-1.427-9.939-4.122-1.717-1.724-2.925-3.718-3.581-6.009z"></path>
</symbol>
<symbol id="icon-change" viewBox="0 0 32 32">
<path d="M2 28v-24c0-1.103 0.898-2 2-2h20c1.104 0 2 0.897 2 2v11.758l2-2v-9.758c0-2.209-1.791-4-4-4h-20c-2.209 0-4 1.791-4 4v24c0 2.209 1.791 4 4 4h11v-2h-11c-1.101 0-2-0.896-2-2zM22 6h-16v2h16v-2zM22 10h-16v2h16v-2zM22 14h-16v2h16v-2zM6 20h8v-2h-8v2zM31.414 18l-1.414-1.414c-0.391-0.391-0.902-0.586-1.414-0.586s-1.023 0.195-1.414 0.586l-8.586 8.586c-0.391 0.39-1.586 1.901-1.586 2.413l-1 4.415 4.414-1c0 0 2.023-1.195 2.414-1.586l8.586-8.586c0.781-0.781 0.781-2.048 0-2.828zM22.123 28.705c-0.113 0.108-0.505 0.372-0.983 0.677l-2.591-2.591c0.266-0.364 0.561-0.73 0.744-0.912l6.465-6.465 2.828 2.828-6.463 6.463z"></path>
</symbol>
<symbol id="icon-cancel" viewBox="0 0 32 32">
<path d="M4 29c-0.002 0-0.004 0-0.006 0-0.275 0-0.524-0.111-0.704-0.29l0 0c-0.183-0.181-0.296-0.432-0.296-0.71s0.113-0.529 0.296-0.71l24-24c0.182-0.182 0.433-0.294 0.71-0.294 0.555 0 1.004 0.45 1.004 1.004 0 0.277-0.112 0.528-0.294 0.71l-24 24c-0.181 0.179-0.429 0.29-0.704 0.29-0.002 0-0.004 0-0.006-0h0z"></path>
<path d="M28 29c-0.002 0-0.004 0-0.006 0-0.275 0-0.524-0.111-0.704-0.29l-24-24c-0.182-0.182-0.294-0.433-0.294-0.71 0-0.555 0.45-1.004 1.004-1.004 0.277 0 0.528 0.112 0.71 0.294v0l24 24c0.183 0.181 0.296 0.432 0.296 0.71s-0.113 0.529-0.296 0.71l-0 0c-0.181 0.179-0.43 0.29-0.704 0.29-0.002 0-0.004 0-0.006-0h0z"></path>
</symbol>
<symbol id="icon-delete" viewBox="0 0 32 32">
<path d="M12.25 11.45h1.5v12h-1.5z"></path>
<path d="M15.25 11.45h1.5v12h-1.5z"></path>
<path d="M18.25 11.45h1.5v12h-1.5z"></path>
<path d="M6.25 6.95h19.5v1.5h-19.5z"></path>
<path d="M19.7 7.7h-1.4v-1.5c0-0.45-0.35-0.8-0.8-0.8h-3c-0.45 0-0.8 0.35-0.8 0.8v1.5h-1.4v-1.5c0-1.2 1-2.2 2.2-2.2h3c1.2 0 2.2 1 2.2 2.2v1.5z"></path>
<path d="M20.5 27.95h-9c-1.2 0-2.25-1-2.35-2.2l-1.4-18 1.5-0.1 1.4 18c0.050 0.45 0.45 0.8 0.85 0.8h9c0.45 0 0.85-0.4 0.85-0.8l1.4-18 1.5 0.1-1.4 18c-0.1 1.25-1.15 2.2-2.35 2.2z"></path>
</symbol>
<symbol id="icon-phoneCall" viewBox="0 0 32 32">
<path fill="none"   stroke-linejoin="round" stroke-linecap="round" stroke-miterlimit="10" stroke-width="0.5" d="M28.581 21.826c3.389-6.821 0.436-15.074-6.076-18.002-6.358-2.858-13.943 0.241-16.957 6.411-3.055 6.255-0.689 14.216 5.527 17.423 9.744 4.955 16.341-3.424 16.441-3.894"></path>
<path fill="none"   stroke-linejoin="round" stroke-linecap="round" stroke-miterlimit="10" stroke-width="0.5" d="M17.786 16.799c0.567-0.486 1.468-1.036 1.414-1.333s-0.613-0.9-1.63-0.964c-0.12-0.008-1.94-0.086-2.775 1.243-0.68 1.083-0.379 2.322 0.297 3.171 0.824 1.034 2.409 1.308 3.675 0.612 2.338-1.635 1.032-3.324 1.18-3.702 1.162-1.838 4.666-1.405 4.936-1.595s0.486-2.013 0.297-2.351-3.699-3.009-8.26-2.838c-3.84 0.144-6.77 2.311-7.053 2.703s-0.486 2.594-0.216 2.756 3.662 0.176 3.919-0.027c0.257-0.203-0.338-2.121-0.108-2.513s1.987-0.842 3.648-0.892c1.922-0.058 3.932 0.54 4.135 0.865s-0.216 1.757-0.135 2.054c0.081 0.297 2.603 4.040 2.522 5.81s-0.716 2.446-0.946 2.54-10.72 0.149-10.99-0.054c-0.27-0.203-0.649-1.689-0.595-2.892s0.907-3.072 1.369-3.946"></path>
</symbol>
<symbol id="icon-search" viewBox="0 0 32 32">
<path d="M12.909 0c-6.844 0-12.392 5.549-12.392 12.392s5.549 12.392 12.392 12.392c2.632 0 5.072-0.821 7.078-2.219l9.372 9.37c0.085 0.085 0.222 0.085 0.302 0.006l1.766-1.766c0.082-0.082 0.074-0.222-0.006-0.302l-9.249-9.249c1.948-2.188 3.13-5.072 3.13-8.233 0-6.843-5.549-12.392-12.392-12.392zM12.909 23.327c-6.039 0-10.934-4.896-10.934-10.934s4.896-10.934 10.934-10.934 10.934 4.896 10.934 10.934c0 6.039-4.896 10.934-10.934 10.934z"></path>
</symbol>
<symbol id="icon-logout" viewBox="0 0 32 32">
<path  d="M24 20v-4h-10v-4h10v-4l6 6zM22 18v8h-10v6l-12-6v-26h22v10h-2v-8h-16l8 4v18h8v-6z"></path>
</symbol>
<symbol id="icon-image" viewBox="0 0 32 32">
<path d="M28 20v4h4v2.667h-4v4h-2.667v-4h-4v-2.667h4v-4h2.667zM28.011 4c0.731 0 1.323 0.593 1.323 1.324v12.009h-2.667v-10.667h-21.333v18.665l13.333-13.332 4 4v3.772l-4-4-9.564 9.561h9.564v2.667h-14.677c-0.731-0.001-1.323-0.593-1.323-1.324v0-21.352c0.005-0.729 0.594-1.318 1.322-1.324h24.022zM10.667 9.333c1.473 0 2.667 1.194 2.667 2.667s-1.194 2.667-2.667 2.667v0c-1.473 0-2.667-1.194-2.667-2.667s1.194-2.667 2.667-2.667v0z"></path>
</symbol>
<symbol id="icon-check_mark" viewBox="0 0 32 32">
<path d="M13.169 20.647l-6.6-6.6c-0.521-0.521-1.365-0.521-1.886 0s-0.521 1.365 0 1.886l7.542 7.542c0.26 0.26 0.602 0.391 0.943 0.391s0.682-0.13 0.943-0.391l13.199-13.199c0.521-0.521 0.521-1.365 0-1.886s-1.365-0.521-1.886 0l-12.257 12.257z"></path>
</symbol>
<symbol id="icon-sun-day" viewBox="0 0 32 32">
<path d="M4 15h-3c-0.552 0-1 0.448-1 1s0.448 1 1 1h3c0.552 0 1-0.448 1-1s-0.448-1-1-1zM16 5c0.552 0 1-0.448 1-1v-3c0-0.552-0.448-1-1-1s-1 0.448-1 1v3c0 0.552 0.448 1 1 1zM25.621 7.78l2.101-2.101c0.387-0.387 0.387-1.014 0-1.401s-1.014-0.387-1.401 0l-2.101 2.101c-0.387 0.387-0.387 1.014 0 1.401s1.014 0.387 1.401 0zM7.41 23.19l-2.101 2.101c-0.387 0.387-0.387 1.014 0 1.401s1.014 0.387 1.401 0l2.101-2.101c0.387-0.387 0.387-1.014 0-1.401s-1.014-0.387-1.401 0zM6.808 8.222c0.391 0.391 1.024 0.391 1.414 0s0.39-1.024 0-1.414l-2.121-2.122c-0.391-0.391-1.024-0.391-1.414 0-0.391 0.391-0.391 1.024 0 1.414l2.121 2.122zM16 27c-0.552 0-1 0.448-1 1v3c0 0.552 0.448 1 1 1s1-0.448 1-1v-3c0-0.552-0.448-1-1-1zM25.192 23.778c-0.391-0.391-1.024-0.391-1.414 0s-0.391 1.024 0 1.414l2.121 2.121c0.391 0.391 1.024 0.391 1.414 0s0.391-1.024 0-1.414l-2.121-2.121zM31 15h-3c-0.552 0-1 0.448-1 1s0.448 1 1 1h3c0.552 0 1-0.448 1-1s-0.448-1-1-1zM16 6.994c-4.974 0-9.006 4.032-9.006 9.006s4.032 9.006 9.006 9.006 9.006-4.032 9.006-9.006-4.032-9.006-9.006-9.006zM16 22.998c-3.865 0-6.998-3.133-6.998-6.998s3.133-6.998 6.998-6.998 6.998 3.133 6.998 6.998-3.133 6.998-6.998 6.998z"></path>
</symbol>
<symbol id="icon-moon" viewBox="0 0 32 32">
<path d="M16.4 29.333h-0.133c-3.844-0.030-7.307-1.633-9.783-4.196l-0.004-0.004c-2.329-2.486-3.76-5.839-3.76-9.526 0-3.505 1.293-6.708 3.428-9.158l-0.014 0.017c1.431-1.598 3.219-2.846 5.241-3.622l0.092-0.031c0.142-0.056 0.307-0.089 0.479-0.089 0.364 0 0.694 0.146 0.935 0.382l-0-0c0.236 0.24 0.381 0.57 0.381 0.934 0 0.143-0.022 0.28-0.064 0.409l0.003-0.009c-0.43 1.142-0.679 2.463-0.679 3.841 0 3.086 1.248 5.88 3.266 7.906l-0-0c2.039 2.014 4.842 3.259 7.936 3.259 1.377 0 2.696-0.246 3.915-0.697l-0.078 0.025c0.132-0.048 0.284-0.076 0.443-0.076 0.736 0 1.333 0.597 1.333 1.333 0 0.166-0.030 0.325-0.086 0.471l0.003-0.009c-0.72 1.891-1.781 3.504-3.12 4.84l-0 0c-2.479 2.472-5.9 4-9.678 4-0.020 0-0.039-0-0.059-0h0.003z"></path>
</symbol>
</defs>
</svg>
